<?xml version="1.0" encoding="iso-8859-1"?>
<!-- Generator: Adobe Illustrator 16.0.0, SVG Export Plug-In . SVG Version: 6.00 Build 0)  -->
<!DOCTYPE svg PUBLIC "-//W3C//DTD SVG 1.1//EN" "http://www.w3.org/Graphics/SVG/1.1/DTD/svg11.dtd">
<svg version="1.1" id="Layer_1" xmlns="http://www.w3.org/2000/svg" xmlns:xlink="http://www.w3.org/1999/xlink" x="0px" y="0px"
	 width="87.871px" height="12.088px" viewBox="0 0 87.871 12.088" style="enable-background:new 0 0 87.871 12.088;"
	 xml:space="preserve">
<g>
	<path style="fill:#FFFFFF;" d="M4.689,9.114H4.666c-0.396,0.672-1.091,0.96-1.883,0.96C0.912,10.074,0,8.466,0,6.751
		c0-1.667,0.923-3.214,2.747-3.214c0.731,0,1.451,0.312,1.835,0.924h0.024V1.342h1.703v8.563H4.689V9.114z M3.202,4.821
		c-1.115,0-1.499,0.959-1.499,1.979c0,0.972,0.444,1.991,1.499,1.991c1.127,0,1.463-0.983,1.463-2.003
		C4.666,5.78,4.306,4.821,3.202,4.821z"/>
	<path style="fill:#FFFFFF;" d="M8.435,7.219c0.048,1.08,0.576,1.571,1.523,1.571c0.684,0,1.235-0.42,1.343-0.804h1.499
		c-0.48,1.463-1.499,2.087-2.902,2.087c-1.955,0-3.167-1.343-3.167-3.262c0-1.859,1.284-3.274,3.167-3.274
		c2.111,0,3.13,1.775,3.01,3.682H8.435z M11.206,6.14c-0.156-0.863-0.528-1.319-1.355-1.319c-1.08,0-1.392,0.839-1.416,1.319H11.206
		z"/>
	<path style="fill:#FFFFFF;" d="M13.404,1.342h1.703v8.563h-1.703V1.342z"/>
	<path style="fill:#FFFFFF;" d="M15.936,3.705h1.703v6.201h-1.703V3.705z"/>
	<path style="fill:#FFFFFF;" d="M22.642,5.888c-0.108-0.696-0.552-1.067-1.26-1.067c-1.092,0-1.451,1.103-1.451,2.015
		c0,0.888,0.348,1.955,1.416,1.955c0.791,0,1.246-0.504,1.354-1.259h1.644c-0.217,1.643-1.355,2.542-2.986,2.542
		c-1.871,0-3.131-1.319-3.131-3.179c0-1.931,1.151-3.358,3.166-3.358c1.464,0,2.807,0.768,2.915,2.351H22.642z"/>
	<path style="fill:#FFFFFF;" d="M27.754,3.537c1.955,0,3.214,1.295,3.214,3.274c0,1.966-1.259,3.262-3.214,3.262
		c-1.943,0-3.202-1.296-3.202-3.262C24.552,4.833,25.811,3.537,27.754,3.537z M27.754,8.791c1.163,0,1.511-0.995,1.511-1.979
		c0-0.996-0.348-1.991-1.511-1.991c-1.151,0-1.499,0.995-1.499,1.991C26.255,7.795,26.603,8.791,27.754,8.791z"/>
	<path style="fill:#FFFFFF;" d="M37.328,9.906h-1.619V9.042h-0.036c-0.432,0.695-1.176,1.031-1.896,1.031
		c-1.811,0-2.267-1.02-2.267-2.555V3.705h1.703v3.502c0,1.02,0.3,1.523,1.092,1.523c0.923,0,1.319-0.516,1.319-1.775v-3.25h1.703
		V9.906z"/>
	<path style="fill:#FFFFFF;" d="M39.382,7.891c0.012,0.743,0.636,1.043,1.308,1.043c0.491,0,1.115-0.191,1.115-0.791
		c0-0.516-0.708-0.695-1.931-0.96c-0.983-0.216-1.967-0.563-1.967-1.655c0-1.583,1.367-1.991,2.698-1.991
		c1.355,0,2.603,0.456,2.734,1.979h-1.619c-0.048-0.66-0.552-0.839-1.163-0.839c-0.384,0-0.948,0.072-0.948,0.576
		c0,0.611,0.96,0.695,1.932,0.923c0.995,0.228,1.967,0.588,1.967,1.739c0,1.631-1.415,2.159-2.831,2.159
		c-1.438,0-2.842-0.54-2.914-2.183H39.382z"/>
	<path style="fill:#28A6DF;" d="M45.261,7.891c0.012,0.743,0.637,1.043,1.309,1.043c0.49,0,1.115-0.191,1.115-0.791
		c0-0.516-0.709-0.695-1.932-0.96c-0.982-0.216-1.966-0.563-1.966-1.655c0-1.583,1.367-1.991,2.699-1.991
		c1.355,0,2.602,0.456,2.734,1.979h-1.619c-0.049-0.66-0.553-0.839-1.164-0.839c-0.383,0-0.947,0.072-0.947,0.576
		c0,0.611,0.959,0.695,1.932,0.923c0.994,0.228,1.967,0.588,1.967,1.739c0,1.631-1.416,2.159-2.83,2.159
		c-1.439,0-2.843-0.54-2.916-2.183H45.261z"/>
	<path style="fill:#28A6DF;" d="M49.822,3.705h1.619v0.864h0.037c0.432-0.696,1.176-1.032,1.895-1.032
		c1.811,0,2.268,1.02,2.268,2.555v3.814h-1.703V6.404c0-1.02-0.301-1.523-1.092-1.523c-0.924,0-1.32,0.516-1.32,1.775v3.25h-1.703
		V3.705z"/>
	<path style="fill:#28A6DF;" d="M56.423,3.705h1.703v6.201h-1.703V3.705z"/>
	<path style="fill:#28A6DF;" d="M58.906,3.705h1.619v0.792h0.025c0.406-0.66,1.078-0.959,1.846-0.959
		c1.943,0,2.818,1.571,2.818,3.334c0,1.654-0.91,3.202-2.723,3.202c-0.742,0-1.451-0.323-1.857-0.936h-0.025v2.95h-1.703V3.705z
		 M63.511,6.823c0-0.983-0.395-2.002-1.486-2.002c-1.115,0-1.475,0.995-1.475,2.002s0.383,1.967,1.486,1.967
		C63.152,8.791,63.511,7.831,63.511,6.823z"/>
	<path style="fill:#28A6DF;" d="M65.675,3.705h1.619v0.792h0.023c0.408-0.66,1.08-0.959,1.848-0.959
		c1.943,0,2.818,1.571,2.818,3.334c0,1.654-0.912,3.202-2.723,3.202c-0.744,0-1.451-0.323-1.859-0.936h-0.023v2.95h-1.703V3.705z
		 M70.281,6.823c0-0.983-0.396-2.002-1.488-2.002c-1.115,0-1.475,0.995-1.475,2.002s0.385,1.967,1.488,1.967
		C69.921,8.791,70.281,7.831,70.281,6.823z"/>
	<path style="fill:#28A6DF;" d="M73.845,7.219c0.049,1.08,0.576,1.571,1.523,1.571c0.684,0,1.236-0.42,1.344-0.804h1.498
		c-0.479,1.463-1.498,2.087-2.902,2.087c-1.953,0-3.166-1.343-3.166-3.262c0-1.859,1.283-3.274,3.166-3.274
		c2.111,0,3.131,1.775,3.012,3.682H73.845z M76.617,6.14c-0.156-0.863-0.527-1.319-1.355-1.319c-1.08,0-1.391,0.839-1.416,1.319
		H76.617z"/>
	<path style="fill:#28A6DF;" d="M80.925,3.705h1.248v1.14h-1.248v3.07c0,0.576,0.145,0.72,0.721,0.72
		c0.18,0,0.348-0.012,0.527-0.048v1.332c-0.289,0.047-0.66,0.059-0.996,0.059c-1.043,0-1.955-0.239-1.955-1.475V4.845h-1.031v-1.14
		h1.031V1.846h1.703V3.705z"/>
	<path style="fill:#28A6DF;" d="M83.746,7.891c0.012,0.743,0.635,1.043,1.307,1.043c0.492,0,1.115-0.191,1.115-0.791
		c0-0.516-0.707-0.695-1.93-0.96c-0.984-0.216-1.967-0.563-1.967-1.655c0-1.583,1.367-1.991,2.697-1.991
		c1.355,0,2.604,0.456,2.734,1.979h-1.619c-0.047-0.66-0.551-0.839-1.162-0.839c-0.385,0-0.949,0.072-0.949,0.576
		c0,0.611,0.961,0.695,1.932,0.923c0.996,0.228,1.967,0.588,1.967,1.739c0,1.631-1.414,2.159-2.83,2.159
		c-1.439,0-2.842-0.54-2.914-2.183H83.746z"/>
</g>
<path style="fill:#FFFFFF;" d="M15.915,3.142C15.874,1.605,16.769,0.26,18.461,0C18.771,0.967,17.69,3.23,15.915,3.142z"/>
<path style="fill:#28A6DF;" d="M56.478,3.142C56.437,1.605,57.332,0.26,59.023,0C59.333,0.967,58.253,3.23,56.478,3.142z"/>
</svg>
