<?xml version="1.0" encoding="iso-8859-1"?>
<!-- Generator: Adobe Illustrator 16.0.0, SVG Export Plug-In . SVG Version: 6.00 Build 0)  -->
<!DOCTYPE svg PUBLIC "-//W3C//DTD SVG 1.1//EN" "http://www.w3.org/Graphics/SVG/1.1/DTD/svg11.dtd">
<svg version="1.1" id="Layer_1" xmlns="http://www.w3.org/2000/svg" xmlns:xlink="http://www.w3.org/1999/xlink" x="0px" y="0px"
	 width="701.02px" height="93.642px" viewBox="0 0 701.02 93.642" style="enable-background:new 0 0 701.02 93.642;"
	 xml:space="preserve">
<g>
	<path style="fill:#FFFFFF;" d="M36.327,70.6h-0.186c-3.067,5.205-8.454,7.437-14.589,7.437C7.062,78.036,0,65.583,0,52.3
		C0,39.386,7.153,27.4,21.276,27.4c5.666,0,11.241,2.417,14.214,7.156h0.185V10.398H48.87v66.336H36.327V70.6z M24.805,37.344
		c-8.639,0-11.612,7.429-11.612,15.326c0,7.527,3.438,15.425,11.612,15.425c8.734,0,11.336-7.618,11.336-15.515
		C36.141,44.773,33.354,37.344,24.805,37.344z"/>
	<path style="fill:#FFFFFF;" d="M65.342,55.923c0.371,8.367,4.459,12.172,11.801,12.172c5.296,0,9.569-3.253,10.405-6.225H99.16
		c-3.718,11.332-11.612,16.166-22.482,16.166c-15.145,0-24.529-10.402-24.529-25.271c0-14.399,9.944-25.365,24.529-25.365
		c16.351,0,24.25,13.752,23.319,28.523H65.342z M86.804,47.561c-1.207-6.688-4.089-10.216-10.497-10.216
		c-8.363,0-10.78,6.501-10.965,10.216H86.804z"/>
	<path style="fill:#FFFFFF;" d="M103.832,10.398h13.189v66.336h-13.189V10.398z"/>
	<path style="fill:#FFFFFF;" d="M123.444,28.701h13.193v48.034h-13.193V28.701z"/>
	<path style="fill:#FFFFFF;" d="M191.877,28.701h13.192v48.034h-13.192V28.701z"/>
	<path style="fill:#FFFFFF;" d="M175.392,45.613c-0.84-5.391-4.273-8.269-9.759-8.269c-8.457,0-11.241,8.544-11.241,15.606
		c0,6.876,2.693,15.145,10.969,15.145c6.128,0,9.654-3.903,10.493-9.751h12.731c-1.68,12.724-10.499,19.692-23.133,19.692
		c-14.494,0-24.253-10.221-24.253-24.625c0-14.956,8.919-26.011,24.525-26.011c11.339,0,21.741,5.946,22.58,18.212H175.392z"/>
	<path style="fill:#FFFFFF;" d="M235.328,27.4c15.146,0,24.897,10.035,24.897,25.365c0,15.232-9.752,25.271-24.897,25.271
		c-15.054,0-24.805-10.039-24.805-25.271C210.523,37.435,220.274,27.4,235.328,27.4z M235.328,68.095
		c9.011,0,11.703-7.708,11.703-15.33c0-7.712-2.692-15.421-11.703-15.421c-8.919,0-11.611,7.708-11.611,15.421
		C223.717,60.387,226.409,68.095,235.328,68.095z"/>
	<path style="fill:#FFFFFF;" d="M309.495,76.735h-12.542v-6.688h-0.281c-3.344,5.386-9.108,7.989-14.683,7.989
		c-14.025,0-17.558-7.898-17.558-19.791V28.701h13.192v27.132c0,7.897,2.322,11.801,8.457,11.801
		c7.149,0,10.221-3.994,10.221-13.753v-25.18h13.193V76.735z"/>
	<path style="fill:#FFFFFF;" d="M325.403,61.128c0.092,5.756,4.925,8.079,10.131,8.079c3.805,0,8.638-1.483,8.638-6.127
		c0-3.994-5.484-5.386-14.956-7.437c-7.617-1.672-15.235-4.365-15.235-12.818c0-12.267,10.592-15.425,20.902-15.425
		c10.499,0,20.164,3.532,21.178,15.33h-12.538c-0.371-5.11-4.275-6.502-9.011-6.502c-2.972,0-7.345,0.556-7.345,4.459
		c0,4.736,7.437,5.386,14.963,7.152c7.712,1.767,15.231,4.554,15.231,13.47c0,12.633-10.957,16.726-21.927,16.726
		c-11.144,0-22.014-4.184-22.573-16.908H325.403z"/>
	<path style="fill:#28A6DF;" d="M370.948,61.128c0.091,5.756,4.932,8.079,10.138,8.079c3.797,0,8.639-1.483,8.639-6.127
		c0-3.994-5.492-5.386-14.963-7.437c-7.611-1.672-15.237-4.365-15.237-12.818c0-12.267,10.592-15.425,20.91-15.425
		c10.5,0,20.153,3.532,21.182,15.33h-12.542c-0.379-5.11-4.281-6.502-9.018-6.502c-2.965,0-7.338,0.556-7.338,4.459
		c0,4.736,7.429,5.386,14.963,7.152c7.701,1.767,15.236,4.554,15.236,13.47c0,12.633-10.97,16.726-21.924,16.726
		c-11.15,0-22.028-4.184-22.588-16.908H370.948z"/>
	<path style="fill:#28A6DF;" d="M406.276,28.701h12.543v6.691h0.287c3.343-5.39,9.108-7.992,14.676-7.992
		c14.025,0,17.565,7.897,17.565,19.79v29.545h-13.192V49.607c0-7.898-2.33-11.801-8.457-11.801c-7.157,0-10.229,3.994-10.229,13.752
		v25.177h-13.193V28.701z"/>
	<path style="fill:#28A6DF;" d="M457.415,28.701h13.193v48.034h-13.193V28.701z"/>
	<path style="fill:#28A6DF;" d="M476.645,28.701h12.543v6.131h0.196c3.147-5.109,8.352-7.432,14.299-7.432
		c15.054,0,21.832,12.172,21.832,25.83c0,12.815-7.051,24.806-21.091,24.806c-5.75,0-11.242-2.505-14.39-7.248h-0.195v22.854
		h-13.194V28.701z M512.321,52.856c0-7.618-3.057-15.512-11.515-15.512c-8.639,0-11.423,7.708-11.423,15.512
		s2.966,15.239,11.515,15.239C509.537,68.095,512.321,60.659,512.321,52.856z"/>
	<path style="fill:#28A6DF;" d="M529.085,28.701h12.543v6.131h0.182c3.161-5.109,8.366-7.432,14.312-7.432
		c15.054,0,21.832,12.172,21.832,25.83c0,12.815-7.065,24.806-21.091,24.806c-5.765,0-11.241-2.505-14.404-7.248h-0.181v22.854
		h-13.193V28.701z M564.761,52.856c0-7.618-3.07-15.512-11.529-15.512c-8.639,0-11.422,7.708-11.422,15.512
		s2.979,15.239,11.528,15.239C561.978,68.095,564.761,60.659,564.761,52.856z"/>
	<path style="fill:#28A6DF;" d="M592.373,55.923c0.378,8.367,4.463,12.172,11.801,12.172c5.296,0,9.577-3.253,10.41-6.225h11.604
		c-3.707,11.332-11.604,16.166-22.482,16.166c-15.13,0-24.525-10.402-24.525-25.271c0-14.399,9.94-25.365,24.525-25.365
		c16.355,0,24.253,13.752,23.33,28.523H592.373z M613.843,47.561c-1.212-6.688-4.086-10.216-10.502-10.216
		c-8.365,0-10.771,6.501-10.968,10.216H613.843z"/>
	<path style="fill:#28A6DF;" d="M647.218,28.701h9.668v8.828h-9.668V61.31c0,4.463,1.12,5.575,5.583,5.575
		c1.393,0,2.694-0.09,4.085-0.371v10.318c-2.238,0.363-5.113,0.454-7.716,0.454c-8.079,0-15.145-1.854-15.145-11.422V37.529h-7.988
		v-8.828h7.988v-14.4h13.192V28.701z"/>
	<path style="fill:#28A6DF;" d="M669.065,61.128c0.091,5.756,4.917,8.079,10.122,8.079c3.812,0,8.64-1.483,8.64-6.127
		c0-3.994-5.478-5.386-14.948-7.437c-7.626-1.672-15.236-4.365-15.236-12.818c0-12.267,10.591-15.425,20.895-15.425
		c10.5,0,20.168,3.532,21.181,15.33h-12.542c-0.363-5.11-4.266-6.502-9.002-6.502c-2.98,0-7.354,0.556-7.354,4.459
		c0,4.736,7.444,5.386,14.964,7.152c7.716,1.767,15.235,4.554,15.235,13.47c0,12.633-10.954,16.726-21.923,16.726
		c-11.15,0-22.014-4.184-22.573-16.908H669.065z"/>
</g>
<path style="fill:#FFFFFF;" d="M191.884,24.34C191.565,12.433,198.495,2.012,211.605,0C214.003,7.489,205.636,25.021,191.884,24.34z
	"/>
</svg>
