<?xml version="1.0" encoding="iso-8859-1"?>
<!-- Generator: Adobe Illustrator 16.0.0, SVG Export Plug-In . SVG Version: 6.00 Build 0)  -->
<!DOCTYPE svg PUBLIC "-//W3C//DTD SVG 1.1//EN" "http://www.w3.org/Graphics/SVG/1.1/DTD/svg11.dtd">
<svg version="1.1" id="Layer_1" xmlns="http://www.w3.org/2000/svg" xmlns:xlink="http://www.w3.org/1999/xlink" x="0px" y="0px"
	 width="286.279px" height="103.364px" viewBox="0 0 286.279 103.364" style="enable-background:new 0 0 286.279 103.364;"
	 xml:space="preserve">
<path style="fill:#FFED00;" d="M269.976,92.146l1.925-23.645c0.236,0.005,0.472,0.024,0.707,0.024h0c1.375,0,2.771-0.08,4.147-0.238
	l9.524-1.093l-7.316-30.72l-5.129-0.265l8.644-0.573l-4.922-22.827l-5.611,0.048l-0.445-9.116l-23.457-0.84l-1.668,10.188
	l-11.804,0.074l0.709,5.265c-0.982-0.171-1.982-0.315-3.019-0.401l-0.07-2.17l-23.436,0.147c-0.971-3.196-2.974-6.071-5.919-8.334
	c-3.693-2.834-8.117-4.272-13.148-4.272c-4.965,0-9.364,1.428-13.073,4.244c-4.305,3.267-6.676,7.811-6.676,12.795
	c0,0.993,0.119,1.961,0.301,2.911l-3.236,0.283l1.307,4.38c-4.486-2.573-9.546-3.879-15.08-3.879c-0.336,0-0.675,0.004-1.042,0.016
	l1.899-22.296L116.173,0l0.539,5.02c-0.542-0.013-1.124-0.027-1.749-0.042c-0.361-0.009-0.72-0.013-1.077-0.013
	c-7.708,0-14.555,2.069-20.353,6.149c-4.167,2.933-6.766,6.192-8.361,9.35L71.069,21.14l3.605-16.9L2.918,4.475L0,34.317
	l19.173,1.115l0.742,22.997l-7.396,0.829l2.366,33.398l75.603-0.17l2.839,3.134l2.713,2.996c2.813,3.105,6.591,4.747,10.927,4.747
	c3.661,0,7.023-1.239,9.726-3.583c2.365-2.053,3.878-4.703,4.422-7.624L269.976,92.146z M243.505,52.658
	c0.806,1.742,1.937,3.528,3.485,5.289l-10.999-0.458l-0.117,0.832l-2.729-0.089l-0.075-3.895L243.505,52.658z M54.536,51.371
	l29.683,2.737l2.866,4.155c-0.978-0.242-1.994-0.375-3.045-0.375c-0.864,0-1.705,0.093-2.522,0.26l-15.82-0.66l-0.56,3.993
	l-4.266,0.031c-0.177-0.18-0.348-0.363-0.538-0.534c-2.258-2.021-5.086-3.09-8.179-3.09c-0.735,0-1.454,0.064-2.155,0.185
	l2.241-16.797L54.536,51.371z M203.397,62.908c-0.067,0-0.132,0.01-0.198,0.011l0.82-3.94l0.858,3.954
	c-0.367-0.01-0.797-0.018-1.327-0.024L203.397,62.908z"/>
<polygon style="fill:#E30613;" points="64.157,12.778 10.633,12.954 9.324,26.341 27.422,27.394 28.424,58.436 41.131,60.248 
	45.367,28.504 60.615,29.381 "/>
<polygon style="fill:#E30613;" points="61.461,43.47 86.183,45.75 90.187,28.738 58.458,30.258 "/>
<path style="fill:#E30613;" d="M165.505,36.279c-3.8-2.61-8.241-3.819-13.323-3.625c-3.441,0.156-6.599,1.014-9.473,2.572
	l2.156-25.313l-19.176-0.936l2.319,21.611l-4.475-16.818c-0.771-0.078-3.696-0.175-8.78-0.292
	c-6.315-0.155-11.758,1.374-16.327,4.589s-6.931,7.162-7.085,11.838c-0.359,8.614,5.262,14.42,16.866,17.421
	c1.694,0.429,2.822,0.78,3.388,1.052c1.283,0.584,1.925,1.364,1.925,2.338c0,0.234-0.052,0.488-0.154,0.76
	c-0.36,1.169-1.721,1.754-4.082,1.754c-2.927,0-5.083-1.111-6.469-3.333l-7.701,5.028c0.564,0.818,1.257,1.579,2.08,2.28
	c2.721,2.3,6.673,3.449,11.859,3.449c4.723,0,8.472-0.955,11.245-2.865c3.953-2.728,5.93-5.3,5.93-7.717
	c0-1.052-0.334-2.124-1.001-3.215c-1.078-1.714-3.466-3.04-7.162-3.975c-1.593-0.429-2.671-0.838-3.235-1.228
	c-0.72-0.506-1.13-1.286-1.232-2.338c-0.154-1.559,0.513-2.552,2.002-2.981c0.872-0.272,2.772-0.37,5.699-0.292
	c0.975,0.039,2.413,0.175,4.312,0.409c1.318,0.163,2.343,0.319,3.076,0.468l2.315,21.571l9.626,1.345l0.847-10.348
	c0-0.039,0-0.078,0-0.117l0.462-5.145c1.283-1.48,3.054-2.28,5.314-2.397c1.849-0.077,3.439,0.361,4.775,1.315
	c1.334,0.956,2.156,2.173,2.464,3.654c0.05,0.39,0.077,0.858,0.077,1.403c0,1.91-0.488,4.442-1.463,7.6
	c-0.771,2.651-1.361,4.287-1.771,4.911l17.404,1.228c2.053-4.598,3.081-9.1,3.081-13.504c0-0.74-0.051-1.54-0.153-2.397
	C171.358,42.146,169.304,38.891,165.505,36.279z"/>
<polygon style="fill:#E30613;" points="186.683,59.839 195.154,59.839 201.546,29.147 178.134,31.193 "/>
<path style="fill:#E30613;" d="M181.754,26.487c2.207,1.657,4.852,2.484,7.932,2.484c3.131,0,5.788-0.827,7.971-2.484
	c2.182-1.656,3.273-3.673,3.273-6.051c0-2.338-1.092-4.345-3.273-6.021c-2.183-1.675-4.84-2.514-7.971-2.514
	c-3.081,0-5.726,0.839-7.932,2.514c-2.208,1.676-3.312,3.683-3.312,6.021C178.441,22.814,179.545,24.831,181.754,26.487z"/>
<path style="fill:#E30613;" d="M243.132,31.311c-3.388-3.274-8.086-4.911-14.093-4.911c-1.694,0-3.364,0.137-5.006,0.409
	l-0.077-2.397l-18.715,0.117l7.933,36.537l11.475-2.339l-0.308-16.076l0.462,0.351c1.283-0.584,2.696-0.876,4.236-0.876
	c2.618,0,4.03,1.189,4.235,3.565l14.17-2.28c0-0.038,0-0.117,0-0.234C247.804,38.384,246.368,34.429,243.132,31.311z"/>
<path style="fill:#E30613;" d="M272.165,44.639c-2.26-0.117-4.119-0.808-5.583-2.075c-1.463-1.266-2.118-2.757-1.964-4.472
	l-0.462-9.762l7.933-0.526l-1.387-6.431l-6.854,0.058l-0.462-9.47l-8.163-0.292l-1.618,9.88l-9.318,0.059l1.079,8.009l7.085-0.468
	l-2.157,13.211c-0.103,0.584-0.154,1.189-0.154,1.812c0,4.092,2.002,7.668,6.006,10.727c4.005,3.06,8.856,4.746,14.556,5.057
	c1.694,0.117,3.389,0.078,5.083-0.117L272.165,44.639z"/>
<path style="fill:#E30613;" d="M42.667,71.712c-0.533,0-1.058,0.05-1.574,0.15l-0.024-0.879l-4.403,0.032
	c-0.063-0.518-0.193-1.029-0.391-1.534c-0.339-0.671-0.791-1.244-1.355-1.716c-1.404-1.158-3.292-1.737-5.665-1.737
	c-0.549,0-1.13,0.036-1.744,0.107L21.579,66.8l1.235,17.441l3.801,0.042l0.387-7.809c1.049,0.615,2.211,0.922,3.486,0.922
	c0.952,0,1.856-0.179,2.712-0.536c1.146-0.472,2.025-1.18,2.639-2.124c0.01-0.015,0.019-0.03,0.028-0.045l1.812,9.741l3.607-0.858
	l-0.097-5.899l0.146,0.129c0.403-0.214,0.847-0.322,1.332-0.322c0.823,0,1.267,0.437,1.331,1.309l4.455-0.836
	c0-0.014,0-0.043,0-0.086c0.113-1.759-0.338-3.21-1.355-4.354C46.031,72.313,44.555,71.712,42.667,71.712z M30.683,74.737
	c-0.323,0.143-0.662,0.214-1.017,0.214c-0.985,0-1.679-0.393-2.083-1.18c-0.145-0.271-0.218-0.558-0.218-0.858
	c0-0.872,0.452-1.494,1.356-1.866c0.323-0.143,0.662-0.214,1.017-0.214c0.984,0,1.678,0.393,2.082,1.18
	c0.146,0.271,0.218,0.558,0.218,0.858C32.039,73.744,31.586,74.365,30.683,74.737z"/>
<path style="fill:#E30613;" d="M49.663,71.744c0.693,0.608,1.525,0.912,2.493,0.912c0.985,0,1.82-0.304,2.506-0.912
	c0.686-0.607,1.028-1.347,1.028-2.22c0-0.858-0.343-1.594-1.028-2.209c-0.687-0.615-1.521-0.922-2.506-0.922
	c-0.968,0-1.8,0.307-2.493,0.922c-0.694,0.615-1.041,1.352-1.041,2.209C48.622,70.397,48.969,71.137,49.663,71.744z"/>
<polygon style="fill:#E30613;" points="51.212,83.983 53.875,83.983 55.885,72.72 48.524,73.472 "/>
<path style="fill:#E30613;" d="M63.196,71.712c-0.517,0-1.041,0.05-1.573,0.15v-0.879l-5.908,0.042l2.518,12.872l3.607-0.322
	l-0.097-5.899l0.121,0.129c0.42-0.214,0.863-0.322,1.332-0.322c0.646,0,1.057,0.223,1.235,0.667
	c0.113,0.287,0.146,0.832,0.097,1.636l-0.193,3.875l3.244-0.021c0.775-2.031,1.243-3.954,1.404-5.771
	c0.113-1.759-0.339-3.21-1.356-4.354C66.577,72.313,65.1,71.712,63.196,71.712z"/>
<path style="fill:#E30613;" d="M76.62,77.644c-0.46-0.465-0.666-1.012-0.617-1.641l-0.146-3.583l2.494-0.192l-0.436-2.36
	l-2.155,0.021l-0.146-3.475l-2.566-0.107l-0.508,3.625l-2.93,0.021l0.339,2.939l2.228-0.172L71.5,77.569
	c-0.033,0.214-0.049,0.437-0.049,0.665c0,1.501,0.63,2.814,1.889,3.936c1.259,1.123,2.784,1.742,4.576,1.856
	c0.532,0.043,1.065,0.028,1.598-0.043l-1.138-5.578C77.665,78.363,77.081,78.109,76.62,77.644z"/>
<path style="fill:#E30613;" d="M81.546,71.744c0.694,0.608,1.525,0.912,2.494,0.912c0.984,0,1.82-0.304,2.505-0.912
	c0.687-0.607,1.029-1.347,1.029-2.22c0-0.858-0.343-1.594-1.029-2.209c-0.686-0.615-1.521-0.922-2.505-0.922
	c-0.969,0-1.8,0.307-2.494,0.922c-0.694,0.615-1.041,1.352-1.041,2.209C80.506,70.397,80.853,71.137,81.546,71.744z"/>
<polygon style="fill:#E30613;" points="83.096,83.983 85.76,83.983 87.769,72.72 80.409,73.472 "/>
<path style="fill:#E30613;" d="M95.08,71.712c-0.517,0-1.041,0.05-1.574,0.15v-0.879L87.6,71.025l2.518,12.872l3.606-0.322
	l-0.097-5.899l0.121,0.129c0.42-0.214,0.863-0.322,1.332-0.322c0.646,0,1.057,0.223,1.235,0.667
	c0.113,0.287,0.145,0.832,0.097,1.636l-0.193,3.875l3.244-0.021c0.774-2.031,1.242-3.954,1.404-5.771
	c0.113-1.759-0.339-3.21-1.355-4.354C98.461,72.313,96.984,71.712,95.08,71.712z"/>
<path style="fill:#E30613;" d="M108.25,69.331l0.581,3.883c-0.468-0.114-0.953-0.171-1.453-0.171c-1.614,0-2.998,0.504-4.151,1.512
	c-1.155,1.008-1.731,2.221-1.731,3.636c0,1.188,0.415,2.242,1.247,3.164c0.831,0.922,1.892,1.527,3.184,1.812l-0.969,3.24
	c0.291-0.101,0.96-0.15,2.009-0.15c0.597,0,1.11,0.186,1.537,0.558c0.428,0.372,0.642,0.823,0.642,1.352
	c0,0.515-0.214,0.958-0.642,1.33c-0.427,0.372-0.94,0.558-1.537,0.558c-0.403,0-0.775-0.086-1.113-0.258l-3.511,3.111
	c1.178,1.301,2.72,1.952,4.624,1.952c1.614,0,2.998-0.501,4.152-1.502c1.154-1.001,1.731-2.209,1.731-3.625
	c0-1.258-0.468-2.367-1.404-3.325c-0.937-0.958-2.099-1.538-3.486-1.738l0.169-1.395c1.453-0.157,2.675-0.719,3.668-1.684
	c0.992-0.965,1.489-2.098,1.489-3.4c0-1.387-0.549-2.667-1.646-3.84l2.542-3.025L108.25,69.331z M108.94,80.551
	c-0.428,0.372-0.948,0.558-1.562,0.558c-0.597,0-1.11-0.186-1.537-0.558c-0.428-0.372-0.642-0.822-0.642-1.352
	c0-0.515,0.213-0.958,0.642-1.33c0.427-0.372,0.94-0.558,1.537-0.558c0.613,0,1.134,0.187,1.562,0.558
	c0.427,0.372,0.642,0.815,0.642,1.33C109.582,79.729,109.367,80.179,108.94,80.551z"/>
<path style="fill:#E30613;" d="M131.83,74.265c0-0.615,0.25-1.141,0.751-1.577c0.5-0.436,1.105-0.654,1.815-0.654l1.598-5.471
	c-0.517-0.114-1.049-0.171-1.598-0.171c-1.921,0-3.575,0.593-4.963,1.78c-1.388,1.187-2.034,2.603-1.937,4.247l0.17,3.089
	l-2.445,0.128l1.017,2.382l1.549-0.086l0.315,5.835l2.566,0.043l0.751-6.071l2.179-0.107l0.048-2.402l-1.937,0.086L131.83,74.265z"
	/>
<path style="fill:#E30613;" d="M146.138,73.911c-1.42-1.237-3.131-1.855-5.132-1.855c-2.018,0-3.736,0.619-5.156,1.855
	c-1.42,1.237-2.131,2.729-2.131,4.473c0,1.759,0.71,3.258,2.131,4.494c1.42,1.237,3.139,1.855,5.156,1.855
	c2.001,0,3.712-0.619,5.132-1.855c1.42-1.236,2.131-2.735,2.131-4.494C148.269,76.64,147.558,75.148,146.138,73.911z M142.906,81.73
	c-0.525,0.458-1.159,0.687-1.901,0.687c-0.759,0-1.4-0.229-1.924-0.687c-0.525-0.458-0.787-1.015-0.787-1.673
	c0-0.644,0.262-1.198,0.787-1.663c0.524-0.464,1.166-0.697,1.924-0.697c0.742,0,1.376,0.233,1.901,0.697
	c0.524,0.465,0.787,1.019,0.787,1.663C143.693,80.715,143.43,81.273,142.906,81.73z"/>
<path style="fill:#E30613;" d="M155.241,71.712c-0.533,0-1.057,0.05-1.573,0.15l-0.024-0.879l-5.883,0.042l2.494,13.408l3.607-0.858
	l-0.097-5.899l0.146,0.129c0.403-0.214,0.848-0.322,1.332-0.322c0.823,0,1.267,0.437,1.332,1.309l4.454-0.836
	c0-0.014,0-0.043,0-0.086c0.112-1.759-0.339-3.21-1.356-4.354C158.606,72.313,157.129,71.712,155.241,71.712z"/>
<polygon style="fill:#E30613;" points="175.237,80.229 177.053,66.714 171.146,66.521 171.388,83.575 174.777,83.726 
	174.777,83.704 183.784,84.262 182.21,79.156 "/>
<path style="fill:#E30613;" d="M211.867,77.461c0.21-0.071,0.646-0.107,1.308-0.107c0.936,0.015,1.573,0.115,1.912,0.3l-1.525-6.178
	c-0.161-0.028-0.823-0.05-1.985-0.064c-1.421-0.014-2.639,0.411-3.656,1.276c-0.864,0.735-1.371,1.607-1.524,2.616l-0.946-3.828
	c-0.162-0.028-0.823-0.05-1.985-0.064c-1.42-0.014-2.639,0.411-3.655,1.276s-1.541,1.92-1.574,3.164c-0.001,0.052,0,0.104,0,0.154
	c-0.455-1.094-1.221-2.015-2.3-2.761c-1.356-0.937-2.89-1.405-4.601-1.405c-0.549,0-1.098,0.058-1.646,0.172
	c-1.711,0.343-3.107,1.112-4.189,2.306c-1.081,1.194-1.622,2.542-1.622,4.044c0,0.472,0.057,0.937,0.169,1.394
	c0.371,1.488,1.235,2.7,2.591,3.636c1.355,0.937,2.889,1.405,4.6,1.405c1.614,0,3.083-0.421,4.407-1.266l-2.445-1.244
	c-0.436,0.244-0.92,0.365-1.453,0.365c-1.13,0-1.945-0.443-2.445-1.33l9.394-2.382c0.015-0.361,0.01-0.697-0.012-1.012
	c0.585,1.137,1.743,1.954,3.474,2.449c0.903,0.272,1.298,0.63,1.186,1.073c-0.081,0.329-0.396,0.493-0.944,0.493
	c-0.646,0-1.13-0.286-1.453-0.858l-1.718,1.352c0.128,0.214,0.282,0.408,0.459,0.579c0.614,0.586,1.493,0.879,2.639,0.879
	c1.097,0,1.968-0.264,2.614-0.793c0.872-0.715,1.307-1.395,1.307-2.038c0-0.286-0.081-0.572-0.242-0.858
	c-0.258-0.443-0.807-0.786-1.646-1.029c-0.372-0.1-0.613-0.2-0.727-0.3c-0.178-0.129-0.282-0.336-0.314-0.622
	c-0.033-0.415,0.113-0.679,0.436-0.794c0.209-0.071,0.646-0.107,1.308-0.107c0.669,0.011,1.186,0.065,1.551,0.163
	c0.504,1.354,1.721,2.309,3.654,2.862c0.904,0.272,1.299,0.63,1.187,1.073c-0.081,0.329-0.396,0.493-0.944,0.493
	c-0.646,0-1.13-0.286-1.453-0.858l-1.719,1.352c0.129,0.214,0.282,0.408,0.46,0.579c0.613,0.586,1.493,0.879,2.639,0.879
	c1.097,0,1.969-0.264,2.614-0.793c0.872-0.715,1.308-1.395,1.308-2.038c0-0.286-0.081-0.572-0.242-0.858
	c-0.258-0.443-0.808-0.786-1.646-1.029c-0.372-0.1-0.614-0.2-0.727-0.3c-0.178-0.129-0.282-0.336-0.314-0.622
	C211.398,77.841,211.544,77.576,211.867,77.461z M189.037,79.607c-0.049-0.701,0.202-1.305,0.75-1.813
	c0.548-0.507,1.219-0.762,2.009-0.762c1.001,0,1.768,0.365,2.301,1.094L189.037,79.607z"/>
<polygon style="fill:#E30613;" points="230.532,80.229 232.348,66.714 226.441,66.521 226.683,83.575 230.072,83.726 
	230.072,83.704 239.078,84.262 237.505,79.156 "/>
<path style="fill:#E30613;" d="M246.91,77.644c-0.459-0.465-0.666-1.012-0.617-1.641l-0.145-3.583l2.494-0.192l-0.436-2.36
	l-2.154,0.021l-0.146-3.475l-2.566-0.107l-0.509,3.625l-2.929,0.021l0.339,2.939l2.228-0.172l-0.679,4.849
	c-0.031,0.214-0.048,0.437-0.048,0.665c0,1.501,0.63,2.814,1.888,3.936c1.259,1.123,2.784,1.742,4.576,1.856
	c0.533,0.043,1.065,0.028,1.598-0.043l-1.137-5.578C247.955,78.363,247.37,78.109,246.91,77.644z"/>
<path style="fill:#E30613;" d="M257.574,66.113l0.848,8.216c-0.936-0.443-1.937-0.665-3.002-0.665c-1.13,0-2.179,0.243-3.147,0.729
	c-1.018,0.515-1.812,1.209-2.385,2.081c-0.573,0.873-0.859,1.802-0.859,2.789c0,0.958,0.274,1.866,0.823,2.724
	c0.548,0.858,1.311,1.531,2.288,2.017c0.976,0.486,2.013,0.729,3.111,0.729c1.533,0,2.896-0.443,4.091-1.33l0.073,0.815l2.687-0.15
	l1.429-17.548L257.574,66.113z M257.429,82.438c-0.372,0.186-0.766,0.279-1.186,0.279c-0.888,0-1.558-0.343-2.009-1.03
	c-0.193-0.314-0.291-0.65-0.291-1.008c0-0.801,0.396-1.401,1.187-1.802c0.371-0.186,0.766-0.279,1.186-0.279
	c0.903,0,1.574,0.343,2.009,1.03c0.193,0.314,0.291,0.65,0.291,1.008C258.615,81.438,258.22,82.038,257.429,82.438z"/>
</svg>
