<?xml version="1.0" encoding="iso-8859-1"?>
<!-- Generator: Adobe Illustrator 16.0.0, SVG Export Plug-In . SVG Version: 6.00 Build 0)  -->
<!DOCTYPE svg PUBLIC "-//W3C//DTD SVG 1.1//EN" "http://www.w3.org/Graphics/SVG/1.1/DTD/svg11.dtd">
<svg version="1.1" id="Layer_1" xmlns="http://www.w3.org/2000/svg" xmlns:xlink="http://www.w3.org/1999/xlink" x="0px" y="0px"
	 width="72.792px" height="11.584px" viewBox="0 0 72.792 11.584" style="enable-background:new 0 0 72.792 11.584;"
	 xml:space="preserve">
<g>
	<path style="fill:#FFFFFF;" d="M4.352,8.821C4.165,9.135,3.921,9.36,3.619,9.498C3.317,9.636,2.976,9.705,2.595,9.705
		c-0.433,0-0.813-0.084-1.141-0.252S0.856,9.059,0.643,8.771C0.431,8.484,0.27,8.154,0.162,7.781S0,7.021,0,6.617
		c0-0.388,0.054-0.762,0.162-1.124C0.27,5.132,0.431,4.812,0.643,4.537c0.213-0.276,0.479-0.498,0.8-0.666
		c0.32-0.168,0.693-0.252,1.119-0.252c0.343,0,0.669,0.073,0.979,0.219S4.094,4.197,4.273,4.48h0.022V1.572h1.588V9.56h-1.51V8.821
		H4.352z M4.352,6.651c0-0.239-0.022-0.468-0.067-0.688C4.24,5.743,4.163,5.549,4.055,5.382C3.947,5.214,3.807,5.077,3.636,4.973
		C3.464,4.869,3.248,4.816,2.987,4.816s-0.481,0.053-0.66,0.156C2.148,5.077,2.004,5.216,1.896,5.387
		C1.788,5.559,1.71,5.755,1.661,5.975c-0.048,0.22-0.073,0.449-0.073,0.688c0,0.224,0.026,0.447,0.079,0.672
		c0.052,0.224,0.136,0.423,0.251,0.598C2.034,8.107,2.18,8.249,2.355,8.357C2.53,8.466,2.741,8.52,2.987,8.52
		c0.261,0,0.479-0.053,0.655-0.157c0.175-0.104,0.315-0.244,0.419-0.419C4.165,7.769,4.24,7.568,4.285,7.345S4.352,6.89,4.352,6.651
		z"/>
	<path style="fill:#FFFFFF;" d="M8.39,8.173C8.628,8.404,8.972,8.52,9.419,8.52c0.32,0,0.596-0.08,0.828-0.24
		c0.231-0.161,0.373-0.33,0.425-0.51h1.398c-0.224,0.694-0.567,1.19-1.029,1.488c-0.463,0.298-1.022,0.447-1.678,0.447
		c-0.455,0-0.865-0.072-1.23-0.218C7.767,9.342,7.458,9.135,7.204,8.866S6.755,8.277,6.617,7.904C6.479,7.531,6.41,7.121,6.41,6.674
		c0-0.433,0.071-0.836,0.212-1.209C6.764,5.093,6.965,4.77,7.227,4.498c0.261-0.272,0.572-0.487,0.934-0.644
		c0.362-0.157,0.763-0.235,1.203-0.235c0.492,0,0.921,0.096,1.287,0.285c0.365,0.19,0.666,0.446,0.9,0.767
		c0.235,0.321,0.405,0.687,0.509,1.097c0.104,0.41,0.142,0.839,0.112,1.286H7.999C8.021,7.568,8.151,7.941,8.39,8.173z M10.186,5.13
		c-0.19-0.209-0.479-0.313-0.867-0.313c-0.253,0-0.464,0.043-0.632,0.129S8.384,5.138,8.284,5.264
		C8.183,5.391,8.112,5.525,8.071,5.667s-0.065,0.269-0.073,0.38h2.584C10.508,5.645,10.376,5.339,10.186,5.13z"/>
	<path style="fill:#FFFFFF;" d="M14.353,1.572V9.56h-1.588V1.572H14.353z"/>
	<path style="fill:#FFFFFF;" d="M16.847,3.776V9.56h-1.588V3.776H16.847z"/>
	<path style="fill:#FFFFFF;" d="M20.472,4.816c-0.254,0-0.466,0.058-0.638,0.174c-0.172,0.115-0.312,0.265-0.419,0.447
		c-0.108,0.183-0.185,0.384-0.229,0.604c-0.044,0.221-0.067,0.438-0.067,0.655c0,0.208,0.022,0.421,0.067,0.638
		c0.045,0.216,0.118,0.412,0.218,0.587s0.237,0.318,0.408,0.431s0.38,0.168,0.626,0.168c0.38,0,0.673-0.106,0.878-0.319
		c0.205-0.212,0.333-0.497,0.386-0.855h1.533c-0.104,0.769-0.403,1.354-0.895,1.756c-0.492,0.403-1.123,0.604-1.891,0.604
		c-0.433,0-0.83-0.072-1.191-0.218s-0.669-0.349-0.923-0.61c-0.254-0.261-0.451-0.572-0.593-0.934
		c-0.142-0.361-0.213-0.759-0.213-1.191c0-0.447,0.065-0.863,0.196-1.247c0.13-0.385,0.323-0.717,0.576-0.996
		s0.563-0.498,0.929-0.654c0.365-0.157,0.783-0.235,1.253-0.235c0.343,0,0.673,0.045,0.99,0.135
		c0.317,0.089,0.601,0.226,0.851,0.408c0.25,0.183,0.453,0.41,0.609,0.683c0.157,0.272,0.246,0.595,0.269,0.968h-1.555
		C21.542,5.148,21.15,4.816,20.472,4.816z"/>
	<path style="fill:#FFFFFF;" d="M23.559,6.674c0-0.463,0.071-0.882,0.212-1.259s0.343-0.697,0.604-0.962
		c0.261-0.265,0.574-0.47,0.939-0.615s0.775-0.219,1.23-0.219s0.867,0.073,1.236,0.219s0.684,0.351,0.945,0.615
		c0.261,0.265,0.462,0.585,0.604,0.962s0.212,0.796,0.212,1.259c0,0.462-0.071,0.88-0.212,1.253s-0.343,0.691-0.604,0.956
		c-0.261,0.265-0.576,0.468-0.945,0.609s-0.781,0.213-1.236,0.213s-0.865-0.071-1.23-0.213s-0.679-0.345-0.939-0.609
		c-0.261-0.265-0.463-0.583-0.604-0.956S23.559,7.136,23.559,6.674z M25.147,6.674c0,0.23,0.022,0.457,0.067,0.677
		s0.121,0.418,0.229,0.593c0.108,0.175,0.251,0.315,0.431,0.419c0.179,0.104,0.402,0.157,0.671,0.157s0.494-0.053,0.677-0.157
		c0.183-0.104,0.328-0.244,0.437-0.419c0.108-0.175,0.185-0.373,0.229-0.593c0.044-0.22,0.067-0.446,0.067-0.677
		c0-0.231-0.022-0.459-0.067-0.683c-0.045-0.224-0.122-0.421-0.229-0.593c-0.108-0.172-0.254-0.312-0.437-0.42
		c-0.183-0.107-0.408-0.162-0.677-0.162s-0.492,0.055-0.671,0.162c-0.179,0.108-0.323,0.248-0.431,0.42
		c-0.108,0.172-0.185,0.369-0.229,0.593S25.147,6.442,25.147,6.674z"/>
	<path style="fill:#FFFFFF;" d="M34.097,9.56V8.754h-0.034c-0.201,0.336-0.462,0.578-0.783,0.728s-0.648,0.224-0.984,0.224
		c-0.425,0-0.774-0.056-1.046-0.168c-0.272-0.111-0.487-0.27-0.643-0.476c-0.157-0.205-0.267-0.454-0.33-0.749
		c-0.063-0.295-0.095-0.621-0.095-0.979V3.776h1.588v3.267c0,0.478,0.075,0.833,0.224,1.068c0.149,0.234,0.414,0.353,0.794,0.353
		c0.433,0,0.746-0.129,0.94-0.387c0.194-0.257,0.291-0.68,0.291-1.27V3.776h1.589V9.56H34.097z"/>
	<path style="fill:#FFFFFF;" d="M37.761,8.122c0.071,0.123,0.162,0.224,0.274,0.302s0.241,0.137,0.386,0.174
		c0.146,0.037,0.297,0.056,0.454,0.056c0.111,0,0.229-0.013,0.352-0.039c0.123-0.025,0.235-0.067,0.336-0.123
		c0.1-0.056,0.185-0.13,0.251-0.224c0.067-0.093,0.101-0.211,0.101-0.353c0-0.238-0.159-0.418-0.476-0.537S38.68,7.14,38.113,7.021
		c-0.231-0.053-0.458-0.114-0.677-0.185c-0.22-0.071-0.416-0.164-0.587-0.28c-0.172-0.115-0.31-0.261-0.414-0.436
		c-0.104-0.176-0.157-0.39-0.157-0.644c0-0.373,0.073-0.679,0.218-0.917c0.146-0.239,0.337-0.427,0.576-0.565
		c0.238-0.138,0.507-0.234,0.805-0.291c0.298-0.056,0.604-0.084,0.917-0.084c0.313,0,0.617,0.03,0.912,0.09s0.558,0.16,0.789,0.302
		c0.231,0.142,0.423,0.33,0.576,0.565c0.153,0.234,0.245,0.531,0.274,0.889h-1.51c-0.022-0.306-0.138-0.512-0.347-0.62
		c-0.208-0.108-0.455-0.162-0.738-0.162c-0.089,0-0.187,0.005-0.291,0.017c-0.104,0.011-0.2,0.035-0.285,0.072
		c-0.086,0.037-0.159,0.092-0.218,0.162c-0.06,0.071-0.089,0.166-0.089,0.285c0,0.143,0.052,0.258,0.156,0.348
		c0.104,0.089,0.241,0.162,0.409,0.218c0.167,0.056,0.359,0.106,0.576,0.151c0.216,0.044,0.437,0.093,0.66,0.146
		c0.231,0.052,0.457,0.115,0.677,0.189c0.22,0.075,0.416,0.174,0.587,0.297c0.171,0.123,0.31,0.275,0.414,0.458
		c0.104,0.184,0.157,0.408,0.157,0.678c0,0.38-0.077,0.699-0.229,0.956c-0.153,0.257-0.353,0.464-0.599,0.621
		c-0.246,0.156-0.528,0.267-0.845,0.33c-0.317,0.062-0.64,0.095-0.967,0.095c-0.335,0-0.664-0.033-0.985-0.101
		c-0.32-0.067-0.605-0.179-0.855-0.336c-0.25-0.156-0.455-0.363-0.615-0.62c-0.161-0.258-0.248-0.58-0.263-0.968h1.51
		C37.654,7.852,37.689,7.999,37.761,8.122z"/>
	<path style="fill:#24A7E0;" d="M46.145,8.821c-0.187,0.313-0.431,0.539-0.733,0.677c-0.302,0.138-0.643,0.207-1.023,0.207
		c-0.433,0-0.813-0.084-1.141-0.252s-0.599-0.395-0.811-0.682s-0.373-0.617-0.481-0.99c-0.108-0.373-0.162-0.761-0.162-1.164
		c0-0.388,0.054-0.762,0.162-1.124c0.108-0.361,0.269-0.681,0.481-0.956c0.212-0.276,0.479-0.498,0.8-0.666
		c0.32-0.168,0.693-0.252,1.118-0.252c0.343,0,0.669,0.073,0.979,0.219s0.554,0.359,0.732,0.643h0.023V1.572h1.588V9.56h-1.51V8.821
		H46.145z M46.145,6.651c0-0.239-0.022-0.468-0.067-0.688c-0.045-0.22-0.122-0.414-0.229-0.581
		c-0.108-0.168-0.248-0.305-0.419-0.409c-0.172-0.104-0.388-0.156-0.649-0.156c-0.261,0-0.481,0.053-0.66,0.156
		c-0.179,0.104-0.322,0.243-0.431,0.414c-0.108,0.172-0.187,0.368-0.235,0.588c-0.049,0.22-0.073,0.449-0.073,0.688
		c0,0.224,0.026,0.447,0.078,0.672c0.052,0.224,0.136,0.423,0.252,0.598c0.116,0.176,0.261,0.317,0.437,0.426
		c0.175,0.108,0.386,0.162,0.632,0.162c0.261,0,0.479-0.053,0.654-0.157c0.175-0.104,0.315-0.244,0.419-0.419
		c0.104-0.175,0.179-0.375,0.224-0.599S46.145,6.89,46.145,6.651z"/>
	<path style="fill:#24A7E0;" d="M49.993,3.776V4.85h0.022c0.074-0.179,0.175-0.345,0.302-0.497c0.126-0.153,0.272-0.283,0.436-0.392
		s0.339-0.192,0.526-0.252s0.38-0.09,0.582-0.09c0.104,0,0.22,0.019,0.347,0.057v1.477c-0.075-0.015-0.164-0.028-0.269-0.039
		c-0.104-0.012-0.205-0.018-0.302-0.018c-0.291,0-0.537,0.049-0.738,0.146c-0.201,0.098-0.364,0.229-0.487,0.397
		s-0.21,0.363-0.263,0.587c-0.052,0.225-0.079,0.467-0.079,0.728V9.56h-1.588V3.776H49.993z"/>
	<path style="fill:#24A7E0;" d="M56.358,9.56V8.754h-0.034c-0.201,0.336-0.462,0.578-0.783,0.728
		c-0.321,0.149-0.649,0.224-0.984,0.224c-0.425,0-0.774-0.056-1.046-0.168c-0.272-0.111-0.486-0.27-0.643-0.476
		c-0.157-0.205-0.267-0.454-0.33-0.749s-0.095-0.621-0.095-0.979V3.776h1.589v3.267c0,0.478,0.074,0.833,0.224,1.068
		c0.149,0.234,0.414,0.353,0.794,0.353c0.433,0,0.746-0.129,0.94-0.387c0.194-0.257,0.291-0.68,0.291-1.27V3.776h1.588V9.56H56.358z
		"/>
	<path style="fill:#24A7E0;" d="M60.195,3.776v0.738h0.022c0.194-0.313,0.44-0.541,0.738-0.683s0.626-0.213,0.984-0.213
		c0.455,0,0.847,0.086,1.175,0.258s0.6,0.398,0.816,0.683c0.216,0.283,0.377,0.613,0.481,0.989c0.104,0.377,0.156,0.771,0.156,1.181
		c0,0.388-0.052,0.761-0.156,1.118c-0.104,0.358-0.263,0.676-0.476,0.951c-0.212,0.276-0.477,0.496-0.794,0.66
		c-0.317,0.164-0.688,0.246-1.113,0.246c-0.358,0-0.688-0.072-0.99-0.218s-0.55-0.36-0.744-0.644h-0.022v2.74h-1.588V3.776H60.195z
		 M61.605,8.52c0.261,0,0.479-0.053,0.654-0.157c0.175-0.104,0.317-0.24,0.425-0.408c0.108-0.168,0.185-0.363,0.229-0.587
		c0.044-0.224,0.067-0.451,0.067-0.683c0-0.23-0.024-0.459-0.073-0.683c-0.048-0.224-0.128-0.423-0.24-0.599
		c-0.112-0.175-0.256-0.316-0.431-0.425c-0.176-0.107-0.39-0.162-0.644-0.162c-0.261,0-0.479,0.055-0.654,0.162
		c-0.175,0.108-0.317,0.248-0.425,0.42s-0.185,0.369-0.229,0.593c-0.045,0.224-0.067,0.455-0.067,0.693
		c0,0.231,0.024,0.459,0.073,0.683c0.048,0.224,0.127,0.419,0.235,0.587c0.108,0.168,0.252,0.305,0.431,0.408
		C61.135,8.467,61.352,8.52,61.605,8.52z"/>
	<path style="fill:#24A7E0;" d="M65.341,4.626c0.164-0.246,0.373-0.443,0.626-0.593c0.253-0.148,0.539-0.255,0.855-0.318
		s0.636-0.096,0.957-0.096c0.291,0,0.585,0.021,0.883,0.062c0.298,0.041,0.571,0.122,0.817,0.241s0.448,0.285,0.604,0.497
		c0.157,0.213,0.235,0.494,0.235,0.845v3.01c0,0.261,0.015,0.511,0.045,0.749c0.03,0.239,0.082,0.418,0.157,0.537H68.91
		c-0.03-0.089-0.054-0.181-0.073-0.274C68.818,9.192,68.805,9.098,68.798,9c-0.254,0.262-0.552,0.444-0.895,0.549
		c-0.343,0.104-0.694,0.156-1.052,0.156c-0.276,0-0.533-0.033-0.772-0.101s-0.448-0.172-0.626-0.313s-0.319-0.32-0.419-0.537
		c-0.101-0.216-0.151-0.474-0.151-0.771c0-0.328,0.058-0.599,0.174-0.812c0.115-0.212,0.264-0.382,0.447-0.509
		c0.183-0.127,0.392-0.222,0.626-0.285s0.472-0.113,0.71-0.151c0.238-0.037,0.474-0.066,0.705-0.089
		c0.231-0.022,0.437-0.056,0.615-0.101c0.179-0.045,0.321-0.11,0.425-0.196c0.104-0.085,0.153-0.21,0.146-0.375
		c0-0.171-0.028-0.308-0.084-0.408s-0.13-0.179-0.224-0.234c-0.093-0.057-0.202-0.094-0.325-0.112
		c-0.123-0.019-0.255-0.027-0.397-0.027c-0.313,0-0.56,0.066-0.738,0.201c-0.179,0.134-0.284,0.357-0.313,0.671h-1.589
		C65.084,5.182,65.177,4.872,65.341,4.626z M68.479,6.869c-0.101,0.033-0.209,0.062-0.325,0.084
		c-0.116,0.022-0.237,0.041-0.363,0.056c-0.127,0.016-0.254,0.034-0.38,0.057c-0.12,0.022-0.237,0.052-0.353,0.089
		c-0.116,0.038-0.217,0.088-0.302,0.151c-0.086,0.063-0.155,0.144-0.207,0.24c-0.052,0.098-0.078,0.221-0.078,0.369
		c0,0.142,0.026,0.262,0.078,0.358s0.123,0.173,0.212,0.229c0.09,0.057,0.194,0.096,0.313,0.118
		c0.119,0.022,0.242,0.033,0.369,0.033c0.313,0,0.556-0.052,0.728-0.156c0.171-0.104,0.298-0.229,0.38-0.375
		s0.132-0.292,0.151-0.441c0.019-0.149,0.028-0.269,0.028-0.358V6.729C68.664,6.789,68.58,6.836,68.479,6.869z"/>
	<path style="fill:#24A7E0;" d="M72.792,1.572V9.56h-1.588V1.572H72.792z"/>
</g>
<path style="fill-rule:evenodd;clip-rule:evenodd;fill:#FFFFFF;" d="M15.26,3.142C15.218,1.605,16.113,0.26,17.805,0
	C18.115,0.967,17.034,3.23,15.26,3.142z"/>
</svg>
